<svg width="125" height="125" viewBox="0 0 125 125" fill="none" xmlns="http://www.w3.org/2000/svg">
<mask id="path-1-inside-1_140_2" fill="white">
<path fill-rule="evenodd" clip-rule="evenodd" d="M76.8998 84.8164C93.5282 81.2716 106 66.4987 106 48.8128C106 28.4817 89.5183 12 69.1872 12C48.856 12 32.3744 28.4817 32.3744 48.8128C32.3744 60.4024 37.7301 70.7412 46.1015 77.4891C45.9562 77.9074 45.8232 78.3396 45.7042 78.7838C45.4183 79.8507 45.2369 80.8982 45.1531 81.8903C40.4506 82.9875 37.0739 85.9982 37.0739 89.5405C37.0739 94.0105 42.4509 97.6341 49.0838 97.6341C55.7166 97.6341 61.0936 94.0105 61.0936 89.5405C61.0936 87.2423 59.6723 85.1679 57.3898 83.6946C60.9006 84.8816 64.6487 85.5534 68.5443 85.6201C68.2152 87.6818 68.3701 90.2664 69.0907 92.9559C69.2069 93.3894 69.3344 93.8133 69.4722 94.2261C63.2642 98.3614 60.3342 104.932 62.905 109.384C65.6357 114.114 73.5389 114.664 80.5573 110.612C87.5756 106.56 91.0514 99.4405 88.3207 94.7107C86.7148 91.9293 83.3202 90.5936 79.3686 90.7891C79.3246 90.6065 79.278 90.4232 79.2288 90.2394C78.6712 88.1584 77.8516 86.3011 76.8998 84.8164Z"/>
</mask>
<path fill-rule="evenodd" clip-rule="evenodd" d="M76.8998 84.8164C93.5282 81.2716 106 66.4987 106 48.8128C106 28.4817 89.5183 12 69.1872 12C48.856 12 32.3744 28.4817 32.3744 48.8128C32.3744 60.4024 37.7301 70.7412 46.1015 77.4891C45.9562 77.9074 45.8232 78.3396 45.7042 78.7838C45.4183 79.8507 45.2369 80.8982 45.1531 81.8903C40.4506 82.9875 37.0739 85.9982 37.0739 89.5405C37.0739 94.0105 42.4509 97.6341 49.0838 97.6341C55.7166 97.6341 61.0936 94.0105 61.0936 89.5405C61.0936 87.2423 59.6723 85.1679 57.3898 83.6946C60.9006 84.8816 64.6487 85.5534 68.5443 85.6201C68.2152 87.6818 68.3701 90.2664 69.0907 92.9559C69.2069 93.3894 69.3344 93.8133 69.4722 94.2261C63.2642 98.3614 60.3342 104.932 62.905 109.384C65.6357 114.114 73.5389 114.664 80.5573 110.612C87.5756 106.56 91.0514 99.4405 88.3207 94.7107C86.7148 91.9293 83.3202 90.5936 79.3686 90.7891C79.3246 90.6065 79.278 90.4232 79.2288 90.2394C78.6712 88.1584 77.8516 86.3011 76.8998 84.8164Z" fill="#B5C9D7"/>
<path d="M76.8998 84.8164L76.2743 81.8823L72.0346 82.7861L74.3742 86.4355L76.8998 84.8164ZM46.1015 77.4891L48.9354 78.4736L49.6284 76.4787L47.9842 75.1534L46.1015 77.4891ZM45.7042 78.7838L48.6019 79.5602L45.7042 78.7838ZM45.1531 81.8903L45.8347 84.8119L47.9587 84.3163L48.1424 82.143L45.1531 81.8903ZM57.3898 83.6946L58.3506 80.8527L55.7629 86.2152L57.3898 83.6946ZM68.5443 85.6201L71.5068 86.093L72.0517 82.6797L68.5957 82.6206L68.5443 85.6201ZM69.0907 92.9559L71.9885 92.1794V92.1794L69.0907 92.9559ZM69.4722 94.2261L71.1354 96.7229L73.0437 95.4517L72.3179 93.2765L69.4722 94.2261ZM62.905 109.384L65.5031 107.884L62.905 109.384ZM80.5573 110.612L79.0573 108.014L80.5573 110.612ZM88.3207 94.7107L85.7226 96.2107H85.7226L88.3207 94.7107ZM79.3686 90.7891L76.452 91.4915L77.034 93.9084L79.5169 93.7855L79.3686 90.7891ZM79.2288 90.2394L82.1266 89.4629L82.1265 89.4629L79.2288 90.2394ZM77.5253 87.7505C95.5097 83.9166 109 67.9436 109 48.8128H103C103 65.0538 91.5467 78.6266 76.2743 81.8823L77.5253 87.7505ZM109 48.8128C109 26.8248 91.1752 9 69.1872 9V15C87.8615 15 103 30.1385 103 48.8128H109ZM69.1872 9C47.1992 9 29.3744 26.8248 29.3744 48.8128H35.3744C35.3744 30.1385 50.5129 15 69.1872 15V9ZM29.3744 48.8128C29.3744 61.3482 35.1712 72.5318 44.2188 79.8248L47.9842 75.1534C40.2889 68.9505 35.3744 59.4567 35.3744 48.8128H29.3744ZM43.2676 76.5046C43.0984 76.9918 42.9441 77.4934 42.8064 78.0073L48.6019 79.5602C48.7023 79.1858 48.814 78.823 48.9354 78.4736L43.2676 76.5046ZM42.8064 78.0073C42.4761 79.24 42.263 80.4627 42.1637 81.6376L48.1424 82.143C48.2108 81.3336 48.3605 80.4613 48.6019 79.5602L42.8064 78.0073ZM44.4714 78.9688C39.2278 80.1922 34.0739 83.911 34.0739 89.5405H40.0739C40.0739 88.0855 41.6734 85.7827 45.8347 84.8119L44.4714 78.9688ZM34.0739 89.5405C34.0739 93.0755 36.201 95.9224 38.9149 97.7513C41.647 99.5925 45.2511 100.634 49.0838 100.634V94.6341C46.2836 94.6341 43.8828 93.8639 42.2681 92.7757C40.6353 91.6754 40.0739 90.4755 40.0739 89.5405H34.0739ZM49.0838 100.634C52.9164 100.634 56.5205 99.5925 59.2526 97.7513C61.9665 95.9224 64.0936 93.0755 64.0936 89.5405H58.0936C58.0936 90.4755 57.5322 91.6754 55.8994 92.7757C54.2848 93.8639 51.884 94.6341 49.0838 94.6341V100.634ZM64.0936 89.5405C64.0936 85.9037 61.8465 83.0006 59.0167 81.1741L55.7629 86.2152C57.4981 87.3352 58.0936 88.581 58.0936 89.5405H64.0936ZM56.4289 86.5366C60.2292 87.8214 64.2839 88.5476 68.493 88.6197L68.5957 82.6206C65.0135 82.5592 61.572 81.9418 58.3506 80.8527L56.4289 86.5366ZM71.9885 92.1794C71.3562 89.8195 71.2558 87.6657 71.5068 86.093L65.5818 85.1472C65.1746 87.698 65.384 90.7132 66.1929 93.7323L71.9885 92.1794ZM72.3179 93.2765C72.1993 92.9211 72.0891 92.555 71.9885 92.1794L66.1929 93.7323C66.3247 94.2239 66.4696 94.7055 66.6264 95.1757L72.3179 93.2765ZM67.809 91.7293C64.3008 94.0663 61.5984 97.1656 60.1477 100.485C58.7 103.797 58.4116 107.602 60.3069 110.884L65.5031 107.884C64.8276 106.715 64.7189 105.008 65.6455 102.888C66.569 100.775 68.4356 98.5213 71.1354 96.7229L67.809 91.7293ZM60.3069 110.884C62.3223 114.375 66.0705 116.017 69.9152 116.284C73.7817 116.553 78.101 115.494 82.0573 113.21L79.0573 108.014C75.9952 109.781 72.8537 110.474 70.3313 110.298C67.7872 110.122 66.2184 109.124 65.5031 107.884L60.3069 110.884ZM82.0573 113.21C86.0135 110.926 89.0902 107.714 90.7907 104.232C92.4816 100.768 92.9341 96.7014 90.9187 93.2107L85.7226 96.2107C86.438 97.4498 86.5179 99.3074 85.399 101.599C84.2897 103.871 82.1194 106.246 79.0573 108.014L82.0573 113.21ZM90.9188 93.2107C88.5428 89.0955 83.8097 87.5657 79.2203 87.7928L79.5169 93.7855C82.8306 93.6215 84.8868 94.7631 85.7226 96.2107L90.9188 93.2107ZM76.331 91.0158C76.3736 91.175 76.414 91.3336 76.452 91.4915L82.2852 90.0868C82.2353 89.8793 82.1824 89.6713 82.1266 89.4629L76.331 91.0158ZM74.3742 86.4355C75.1428 87.6344 75.845 89.2021 76.331 91.0158L82.1265 89.4629C81.4973 87.1146 80.5604 84.9678 79.4253 83.1973L74.3742 86.4355Z" fill="#3E3A39" mask="url(#path-1-inside-1_140_2)"/>
<circle cx="79.6828" cy="48.2287" r="18.969" fill="#B5C9D7" stroke="#3E3A39" stroke-width="3"/>
<path d="M88.4172 47.8627C88.4172 52.9385 84.4575 56.9627 79.6828 56.9627C74.908 56.9627 70.9483 52.9385 70.9483 47.8627C70.9483 42.7869 74.908 38.7627 79.6828 38.7627C84.4575 38.7627 88.4172 42.7869 88.4172 47.8627Z" fill="#B5C9D7" stroke="#3E3A39" stroke-width="3"/>
<path d="M45.5457 52.7334C46.6237 54.6006 46.1766 57.6379 43.5674 61.4031C41.0312 65.063 36.7312 68.9509 31.2392 72.1217C25.7473 75.2925 20.2303 77.0725 15.7926 77.439C11.2272 77.816 8.37323 76.6845 7.2952 74.8173C6.21716 72.9501 6.66426 69.9128 9.27347 66.1475C11.8097 62.4876 16.1097 58.5997 21.6017 55.4289C27.0936 52.2581 32.6106 50.4782 37.0483 50.1117C41.6137 49.7347 44.4677 50.8662 45.5457 52.7334Z" fill="#B5C9D7" stroke="#3E3A39" stroke-width="3"/>
<path d="M46.2008 53.1187C45.9734 53.7896 45.3611 54.4665 44.1094 55.0219C42.8559 55.5781 41.1047 55.9409 38.9262 56.0384C34.5794 56.233 28.8542 55.3582 22.8171 53.3117C16.7799 51.2652 11.703 48.4782 8.37056 45.6805C6.70045 44.2783 5.53079 42.9254 4.87391 41.7217C4.21795 40.5196 4.14351 39.6099 4.37096 38.9389C4.59841 38.268 5.21066 37.5911 6.46239 37.0357C7.71588 36.4795 9.46711 36.1167 11.6456 36.0192C15.9924 35.8246 21.7175 36.6994 27.7547 38.7459C33.7918 40.7924 38.8688 43.5794 42.2012 46.3771C43.8713 47.7793 45.041 49.1322 45.6979 50.3359C46.3538 51.538 46.4283 52.4477 46.2008 53.1187Z" fill="#B5C9D7" stroke="#3E3A39" stroke-width="3"/>
<mask id="path-7-inside-2_140_2" fill="white">
<path fill-rule="evenodd" clip-rule="evenodd" d="M75.1938 81.5731C89.9399 78.4297 101 65.3291 101 49.6453C101 31.6158 86.3842 17 68.3547 17C50.3252 17 35.7094 31.6158 35.7094 49.6453C35.7094 59.9229 40.4587 69.0912 47.8825 75.0753C47.7536 75.4462 47.6357 75.8295 47.5301 76.2235C47.2765 77.1699 47.1157 78.099 47.0413 78.9791C42.8712 79.952 39.8768 82.622 39.8768 85.7632C39.8768 89.7271 44.6451 92.9405 50.5271 92.9405C56.4091 92.9405 61.1773 89.7271 61.1773 85.7632C61.1773 83.7243 59.9158 81.8839 57.89 80.5773C61.0042 81.6305 64.329 82.2266 67.7847 82.2858C67.4927 84.1142 67.63 86.4064 68.2691 88.7917C68.3722 89.1763 68.4853 89.5523 68.6075 89.9184C63.1022 93.5856 60.5039 99.4121 62.7837 103.361C65.2053 107.555 72.2137 108.042 78.4376 104.449C84.6614 100.856 87.7437 94.5425 85.3221 90.3482C83.898 87.8817 80.8877 86.6972 77.3836 86.8706C77.3445 86.7085 77.3032 86.5459 77.2595 86.3828C76.7649 84.5371 76.038 82.8899 75.1938 81.5731Z"/>
</mask>
<path fill-rule="evenodd" clip-rule="evenodd" d="M75.1938 81.5731C89.9399 78.4297 101 65.3291 101 49.6453C101 31.6158 86.3842 17 68.3547 17C50.3252 17 35.7094 31.6158 35.7094 49.6453C35.7094 59.9229 40.4587 69.0912 47.8825 75.0753C47.7536 75.4462 47.6357 75.8295 47.5301 76.2235C47.2765 77.1699 47.1157 78.099 47.0413 78.9791C42.8712 79.952 39.8768 82.622 39.8768 85.7632C39.8768 89.7271 44.6451 92.9405 50.5271 92.9405C56.4091 92.9405 61.1773 89.7271 61.1773 85.7632C61.1773 83.7243 59.9158 81.8839 57.89 80.5773C61.0042 81.6305 64.329 82.2266 67.7847 82.2858C67.4927 84.1142 67.63 86.4064 68.2691 88.7917C68.3722 89.1763 68.4853 89.5523 68.6075 89.9184C63.1022 93.5856 60.5039 99.4121 62.7837 103.361C65.2053 107.555 72.2137 108.042 78.4376 104.449C84.6614 100.856 87.7437 94.5425 85.3221 90.3482C83.898 87.8817 80.8877 86.6972 77.3836 86.8706C77.3445 86.7085 77.3032 86.5459 77.2595 86.3828C76.7649 84.5371 76.038 82.8899 75.1938 81.5731Z" fill="#B5C9D7"/>
<path d="M75.1938 81.5731L74.5683 78.639L70.3283 79.5429L72.6683 83.1924L75.1938 81.5731ZM47.8825 75.0753L50.7164 76.0598L51.4094 74.0649L49.7652 72.7396L47.8825 75.0753ZM47.5301 76.2235L44.6323 75.447H44.6323L47.5301 76.2235ZM47.0413 78.9791L47.723 81.9006L49.847 81.405L50.0307 79.2317L47.0413 78.9791ZM57.89 80.5773L58.8511 77.7354L56.2639 83.0984L57.89 80.5773ZM67.7847 82.2858L70.7472 82.7589L71.2923 79.3454L67.8361 79.2862L67.7847 82.2858ZM68.2691 88.7917L71.1669 88.0153L68.2691 88.7917ZM68.6075 89.9184L70.2707 92.4152L72.1791 91.1439L71.4532 88.9688L68.6075 89.9184ZM62.7837 103.361L60.1856 104.861L62.7837 103.361ZM78.4376 104.449L79.9376 107.047L78.4376 104.449ZM85.3221 90.3482L87.9202 88.8482L85.3221 90.3482ZM77.3836 86.8706L74.4669 87.5729L75.0489 89.9898L77.5318 89.8669L77.3836 86.8706ZM77.2595 86.3828L74.3617 87.1592L74.3617 87.1593L77.2595 86.3828ZM75.8192 84.5072C91.9214 81.0748 104 66.7741 104 49.6453H98C98 63.8842 87.9584 75.7847 74.5683 78.639L75.8192 84.5072ZM104 49.6453C104 29.959 88.041 14 68.3547 14V20C84.7273 20 98 33.2727 98 49.6453H104ZM68.3547 14C48.6683 14 32.7094 29.959 32.7094 49.6453H38.7094C38.7094 33.2727 51.982 20 68.3547 20V14ZM32.7094 49.6453C32.7094 60.8687 37.8999 70.8819 45.9998 77.4109L49.7652 72.7396C43.0176 67.3006 38.7094 58.9771 38.7094 49.6453H32.7094ZM45.0486 74.0908C44.8958 74.5306 44.7566 74.9833 44.6323 75.447L50.4279 77C50.5147 76.6757 50.6114 76.3618 50.7164 76.0598L45.0486 74.0908ZM44.6323 75.447C44.3343 76.5593 44.1418 77.6637 44.052 78.7265L50.0307 79.2317C50.0896 78.5344 50.2187 77.7805 50.4279 77L44.6323 75.447ZM46.3597 76.0576C41.6484 77.1568 36.8768 80.5347 36.8768 85.7632H42.8768C42.8768 84.7092 44.0941 82.7473 47.723 81.9006L46.3597 76.0576ZM36.8768 85.7632C36.8768 89.0452 38.8518 91.663 41.3197 93.3261C43.8057 95.0015 47.0699 95.9405 50.5271 95.9405V89.9405C48.1023 89.9405 46.0414 89.2729 44.6728 88.3505C43.286 87.416 42.8768 86.4452 42.8768 85.7632H36.8768ZM50.5271 95.9405C53.9843 95.9405 57.2485 95.0015 59.7345 93.3261C62.2024 91.663 64.1773 89.0452 64.1773 85.7632H58.1773C58.1773 86.4452 57.7681 87.416 56.3814 88.3505C55.0127 89.2729 52.9518 89.9405 50.5271 89.9405V95.9405ZM64.1773 85.7632C64.1773 82.3849 62.0892 79.7159 59.5161 78.0562L56.2639 83.0984C57.7423 84.052 58.1773 85.0636 58.1773 85.7632H64.1773ZM56.9289 83.4192C60.3326 84.5703 63.9642 85.2208 67.7333 85.2853L67.8361 79.2862C64.6939 79.2324 61.6757 78.6907 58.8511 77.7354L56.9289 83.4192ZM71.1669 88.0153C70.6161 85.9596 70.5333 84.0982 70.7472 82.7589L64.8222 81.8127C64.4521 84.1302 64.6439 86.8532 65.3714 89.5682L71.1669 88.0153ZM71.4532 88.9688C71.3502 88.66 71.2544 88.3418 71.1669 88.0153L65.3714 89.5682C65.49 90.0108 65.6204 90.4445 65.7618 90.868L71.4532 88.9688ZM66.9443 87.4216C63.7875 89.5245 61.3437 92.3208 60.0273 95.3326C58.714 98.3373 58.4358 101.83 60.1856 104.861L65.3818 101.861C64.8518 100.943 64.7329 99.548 65.5251 97.7355C66.3142 95.9301 67.9223 93.9795 70.2707 92.4152L66.9443 87.4216ZM60.1856 104.861C62.0464 108.084 65.4937 109.576 68.9767 109.818C72.4816 110.062 76.3786 109.102 79.9376 107.047L76.9376 101.851C74.2727 103.389 71.5536 103.983 69.3928 103.832C67.2103 103.681 65.9425 102.832 65.3818 101.861L60.1856 104.861ZM79.9376 107.047C83.4965 104.992 86.2763 102.097 87.8177 98.9402C89.3495 95.8027 89.781 92.0712 87.9202 88.8482L82.724 91.8482C83.2848 92.8195 83.3859 94.3418 82.426 96.3078C81.4757 98.2541 79.6024 100.312 76.9376 101.851L79.9376 107.047ZM87.9202 88.8482C85.726 85.0479 81.3773 83.6693 77.2353 83.8742L77.5318 89.8669C80.3981 89.7251 82.07 90.7155 82.724 91.8482L87.9202 88.8482ZM74.3617 87.1593C74.3988 87.2977 74.4339 87.4356 74.4669 87.5729L80.3002 86.1683C80.2552 85.9814 80.2076 85.794 80.1572 85.6063L74.3617 87.1593ZM72.6683 83.1924C73.3293 84.2233 73.9388 85.5808 74.3617 87.1592L80.1573 85.6063C79.5911 83.4933 78.7468 81.5565 77.7192 79.9539L72.6683 83.1924Z" fill="#3E3A39" mask="url(#path-7-inside-2_140_2)"/>
<circle cx="77.6621" cy="49.1268" r="16.6517" fill="#B5C9D7" stroke="#3E3A39" stroke-width="3"/>
<path d="M85.2379 48.8028C85.2379 53.2159 81.7969 56.7028 77.6621 56.7028C73.5272 56.7028 70.0862 53.2159 70.0862 48.8028C70.0862 44.3897 73.5272 40.9028 77.6621 40.9028C81.7969 40.9028 85.2379 44.3897 85.2379 48.8028Z" fill="#B5C9D7" stroke="#3E3A39" stroke-width="3"/>
<path d="M47.2425 53.2068C48.1465 54.7725 47.8006 57.3874 45.4957 60.7135C43.2638 63.9342 39.4713 67.3661 34.6178 70.1683C29.7643 72.9705 24.8959 74.5389 20.9908 74.8614C16.9579 75.1945 14.5203 74.1866 13.6164 72.6209C12.7125 71.0552 13.0584 68.4403 15.3632 65.1142C17.5951 61.8935 21.3876 58.4616 26.2411 55.6594C31.0946 52.8572 35.963 51.2888 39.8682 50.9663C43.9011 50.6333 46.3386 51.6411 47.2425 53.2068Z" fill="#B5C9D7" stroke="#3E3A39" stroke-width="3"/>
<path d="M47.8097 53.4093C47.6284 53.9442 47.1308 54.5155 46.047 54.9964C44.9614 55.4781 43.4313 55.7974 41.5118 55.8834C37.683 56.0548 32.6274 55.284 27.2885 53.4742C21.9496 51.6643 17.4674 49.202 14.5321 46.7376C13.0606 45.5022 12.0401 44.3182 11.4712 43.2757C10.9032 42.2349 10.8556 41.4788 11.0369 40.9439C11.2183 40.4089 11.7158 39.8377 12.7997 39.3568C13.8852 38.8751 15.4153 38.5557 17.3348 38.4698C21.1636 38.2984 26.2192 39.0692 31.5581 40.879C36.897 42.6888 41.3792 45.1512 44.3145 47.6155C45.7861 48.851 46.8066 50.0349 47.3754 51.0775C47.9434 52.1183 47.991 52.8744 47.8097 53.4093Z" fill="#B5C9D7" stroke="#3E3A39" stroke-width="3"/>
</svg>
