<svg width="125" height="125" viewBox="0 0 125 125" fill="none" xmlns="http://www.w3.org/2000/svg">
<circle cx="62.5" cy="62" r="43.5" fill="#828480" stroke="#3E3A39" stroke-width="3"/>
<circle cx="62.3713" cy="62.3713" r="37.8713" fill="#828480" stroke="#3E3A39" stroke-width="3"/>
<path d="M46.5939 59.3204C46.5939 60.5348 46.2631 61.5664 45.807 62.2505C45.3439 62.9452 44.8689 63.1409 44.547 63.1409C44.2251 63.1409 43.75 62.9452 43.287 62.2505C42.8309 61.5664 42.5 60.5348 42.5 59.3204C42.5 58.1061 42.8309 57.0745 43.287 56.3904C43.75 55.6957 44.2251 55.5 44.547 55.5C44.8689 55.5 45.3439 55.6957 45.807 56.3904C46.2631 57.0745 46.5939 58.1061 46.5939 59.3204Z" fill="#3E3A39" stroke="#3E3A39" stroke-width="3"/>
<path d="M77.1233 59.3204C77.1233 60.5348 76.7924 61.5664 76.3363 62.2505C75.8732 62.9452 75.3982 63.1409 75.0763 63.1409C74.7544 63.1409 74.2794 62.9452 73.8163 62.2505C73.3602 61.5664 73.0293 60.5348 73.0293 59.3204C73.0293 58.1061 73.3602 57.0745 73.8163 56.3904C74.2794 55.6957 74.7544 55.5 75.0763 55.5C75.3982 55.5 75.8732 55.6957 76.3363 56.3904C76.7924 57.0745 77.1233 58.1061 77.1233 59.3204Z" fill="#3E3A39" stroke="#3E3A39" stroke-width="3"/>
<mask id="path-5-inside-1_140_87" fill="white">
<path fill-rule="evenodd" clip-rule="evenodd" d="M45 72C45 72 45 72.0001 45 72.0001C45 80.2844 51.7157 87.0001 60 87.0001C68.2843 87.0001 75 80.2844 75 72.0001C75 72.0001 75 72 75 72H45Z"/>
</mask>
<path fill-rule="evenodd" clip-rule="evenodd" d="M45 72C45 72 45 72.0001 45 72.0001C45 80.2844 51.7157 87.0001 60 87.0001C68.2843 87.0001 75 80.2844 75 72.0001C75 72.0001 75 72 75 72H45Z" fill="#3E3A39"/>
<path d="M45 72V69H42V72H45ZM75 72H78V69H75V72ZM48 72.0001C48 72.0001 48 72.0001 48 72.0001C48 72.0001 48 72 48 72H42C42 72 42 72 42 72C42 72.0001 42 72.0001 42 72.0001H48ZM60 84.0001C53.3726 84.0001 48 78.6275 48 72.0001H42C42 81.9413 50.0589 90.0001 60 90.0001V84.0001ZM72 72.0001C72 78.6275 66.6274 84.0001 60 84.0001V90.0001C69.9411 90.0001 78 81.9413 78 72.0001H72ZM72 72C72 72 72 72 72 72C72 72 72 72 72 72C72 72 72 72 72 72C72 72 72 72 72 72C72 72 72 72 72 72C72 72 72 72 72 72C72 72 72 72 72 72C72 72 72 72 72 72C72 72 72 72 72 72C72 72 72 72 72 72C72 72 72 72 72 72C72 72 72 72 72 72C72 72 72 72 72 72C72 72 72 72 72 72C72 72 72 72 72 72C72 72 72 72 72 72C72 72 72 72 72 72C72 72 72 72 72 72C72 72 72 72 72 72C72 72 72 72 72 72C72 72 72 72 72 72C72 72 72 72 72 72C72 72 72 72 72 72C72 72 72 72 72 72C72 72 72 72 72 72C72 72 72 72 72 72C72 72 72 72 72 72C72 72 72 72 72 72C72 72 72 72 72 72C72 72 72 72 72 72C72 72 72 72 72 72C72 72 72 72 72 72C72 72 72 72 72 72C72 72 72 72 72 72C72 72 72 72 72 72C72 72 72 72 72 72C72 72 72 72 72 72C72 72 72 72 72 72C72 72 72 72 72 72C72 72 72 72 72 72C72 72 72 72 72 72C72 72 72 72 72 72C72 72 72 72 72 72C72 72 72 72 72 72C72 72 72 72 72 72C72 72 72 72 72 72C72 72 72 72 72 72C72 72 72 72 72 72C72 72 72 72 72 72C72 72 72 72 72 72C72 72 72 72 72 72C72 72 72 72 72 72C72 72 72 72 72 72C72 72 72 72 72 72C72 72 72 72 72 72C72 72 72 72 72 72C72 72 72 72 72 72C72 72 72 72 72 72C72 72 72 72 72 72C72 72 72 72 72 72C72 72 72 72 72 72C72 72 72 72 72 72C72 72 72 72 72 72C72 72 72 72 72 72C72 72 72 72 72 72C72 72 72 72 72 72C72 72 72 72 72 72C72 72 72 72 72 72C72 72 72 72 72 72C72 72 72 72 72 72C72 72 72 72 72 72C72 72 72 72 72 72C72 72 72 72 72 72C72 72 72 72 72 72C72 72 72 72 72 72C72 72 72 72 72 72C72 72 72 72 72 72C72 72 72 72 72 72C72 72 72 72 72 72C72 72 72 72 72 72C72 72 72 72 72 72C72 72 72 72 72 72C72 72 72 72 72 72C72 72 72 72 72 72C72 72 72 72 72 72C72 72 72 72 72 72C72 72 72 72 72 72C72 72 72 72 72 72C72 72 72 72 72 72C72 72 72 72 72 72C72 72 72 72 72 72C72 72 72 72 72 72C72 72 72 72 72 72C72 72 72 72 72 72C72 72 72 72 72 72C72 72 72 72 72 72C72 72 72 72 72 72C72 72 72 72 72 72C72 72 72 72 72 72C72 72 72 72 72 72C72 72 72 72 72 72C72 72 72 72 72 72C72 72 72 72 72 72C72 72 72 72 72 72C72 72 72 72 72 72C72 72 72 72 72 72C72 72 72 72 72 72C72 72 72 72 72 72C72 72 72 72 72 72C72 72 72 72 72 72C72 72 72 72 72 72C72 72 72 72 72 72C72 72 72 72 72 72C72 72 72 72 72 72C72 72 72 72 72 72C72 72 72 72 72 72C72 72 72 72 72 72C72 72 72 72 72 72C72 72 72 72 72 72C72 72 72 72 72 72C72 72 72 72 72 72C72 72 72 72 72 72C72 72 72 72 72 72C72 72 72 72 72 72C72 72 72 72 72 72C72 72 72 72 72 72C72 72 72 72 72 72C72 72 72 72 72 72C72 72 72 72 72 72C72 72 72 72 72 72C72 72 72 72 72 72C72 72 72 72 72 72C72 72 72 72 72 72C72 72 72 72 72 72C72 72 72 72 72 72C72 72 72 72 72 72C72 72 72 72 72 72C72 72 72 72 72 72C72 72 72 72 72 72C72 72 72 72 72 72C72 72 72 72 72 72C72 72 72 72 72 72C72 72 72 72 72 72C72 72 72 72 72 72C72 72 72 72 72 72C72 72 72 72 72 72C72 72 72 72 72 72C72 72 72 72 72 72C72 72 72 72 72 72C72 72 72 72 72 72C72 72 72 72 72 72C72 72 72 72 72 72C72 72 72 72 72 72C72 72 72 72 72 72C72 72 72 72 72 72C72 72 72 72 72 72C72 72 72 72 72 72C72 72 72 72 72 72C72 72 72 72 72 72C72 72 72 72 72 72C72 72 72 72 72 72C72 72 72 72 72 72C72 72 72 72 72 72C72 72 72 72 72 72C72 72 72 72 72 72C72 72 72 72 72 72C72 72 72 72 72 72C72 72 72 72 72 72C72 72 72 72 72 72C72 72 72 72 72 72C72 72 72 72 72 72C72 72 72 72 72 72C72 72 72 72 72 72C72 72 72 72 72 72C72 72 72 72 72 72C72 72 72 72 72 72C72 72 72 72 72 72C72 72 72 72 72 72C72 72 72 72 72 72C72 72 72 72 72 72C72 72 72 72 72 72C72 72 72 72 72 72C72 72 72 72 72 72C72 72 72 72 72 72C72 72 72 72 72 72C72 72 72 72 72 72C72 72 72 72 72 72C72 72 72 72 72 72C72 72 72 72 72 72C72 72 72 72 72 72C72 72 72 72 72 72C72 72 72 72 72 72C72 72 72 72 72 72C72 72 72 72 72 72C72 72 72 72 72 72C72 72 72 72 72 72C72 72 72 72 72 72C72 72 72 72.0001 72 72.0001C72 72.0001 72 72.0001 72 72.0001C72 72.0001 72 72.0001 72 72.0001C72 72.0001 72 72.0001 72 72.0001C72 72.0001 72 72.0001 72 72.0001C72 72.0001 72 72.0001 72 72.0001C72 72.0001 72 72.0001 72 72.0001C72 72.0001 72 72.0001 72 72.0001C72 72.0001 72 72.0001 72 72.0001C72 72.0001 72 72.0001 72 72.0001C72 72.0001 72 72.0001 72 72.0001C72 72.0001 72 72.0001 72 72.0001C72 72.0001 72 72.0001 72 72.0001C72 72.0001 72 72.0001 72 72.0001C72 72.0001 72 72.0001 72 72.0001C72 72.0001 72 72.0001 72 72.0001C72 72.0001 72 72.0001 72 72.0001C72 72.0001 72 72.0001 72 72.0001C72 72.0001 72 72.0001 72 72.0001C72 72.0001 72 72.0001 72 72.0001C72 72.0001 72 72.0001 72 72.0001C72 72.0001 72 72.0001 72 72.0001C72 72.0001 72 72.0001 72 72.0001C72 72.0001 72 72.0001 72 72.0001C72 72.0001 72 72.0001 72 72.0001C72 72.0001 72 72.0001 72 72.0001C72 72.0001 72 72.0001 72 72.0001C72 72.0001 72 72.0001 72 72.0001C72 72.0001 72 72.0001 72 72.0001C72 72.0001 72 72.0001 72 72.0001C72 72.0001 72 72.0001 72 72.0001C72 72.0001 72 72.0001 72 72.0001C72 72.0001 72 72.0001 72 72.0001C72 72.0001 72 72.0001 72 72.0001C72 72.0001 72 72.0001 72 72.0001C72 72.0001 72 72.0001 72 72.0001C72 72.0001 72 72.0001 72 72.0001C72 72.0001 72 72.0001 72 72.0001C72 72.0001 72 72.0001 72 72.0001C72 72.0001 72 72.0001 72 72.0001C72 72.0001 72 72.0001 72 72.0001C72 72.0001 72 72.0001 72 72.0001C72 72.0001 72 72.0001 72 72.0001C72 72.0001 72 72.0001 72 72.0001C72 72.0001 72 72.0001 72 72.0001C72 72.0001 72 72.0001 72 72.0001C72 72.0001 72 72.0001 72 72.0001C72 72.0001 72 72.0001 72 72.0001C72 72.0001 72 72.0001 72 72.0001C72 72.0001 72 72.0001 72 72.0001C72 72.0001 72 72.0001 72 72.0001C72 72.0001 72 72.0001 72 72.0001C72 72.0001 72 72.0001 72 72.0001C72 72.0001 72 72.0001 72 72.0001C72 72.0001 72 72.0001 72 72.0001C72 72.0001 72 72.0001 72 72.0001C72 72.0001 72 72.0001 72 72.0001C72 72.0001 72 72.0001 72 72.0001C72 72.0001 72 72.0001 72 72.0001C72 72.0001 72 72.0001 72 72.0001C72 72.0001 72 72.0001 72 72.0001C72 72.0001 72 72.0001 72 72.0001C72 72.0001 72 72.0001 72 72.0001C72 72.0001 72 72.0001 72 72.0001C72 72.0001 72 72.0001 72 72.0001C72 72.0001 72 72.0001 72 72.0001C72 72.0001 72 72.0001 72 72.0001C72 72.0001 72 72.0001 72 72.0001C72 72.0001 72 72.0001 72 72.0001C72 72.0001 72 72.0001 72 72.0001C72 72.0001 72 72.0001 72 72.0001C72 72.0001 72 72.0001 72 72.0001C72 72.0001 72 72.0001 72 72.0001C72 72.0001 72 72.0001 72 72.0001C72 72.0001 72 72.0001 72 72.0001C72 72.0001 72 72.0001 72 72.0001C72 72.0001 72 72.0001 72 72.0001C72 72.0001 72 72.0001 72 72.0001C72 72.0001 72 72.0001 72 72.0001C72 72.0001 72 72.0001 72 72.0001C72 72.0001 72 72.0001 72 72.0001C72 72.0001 72 72.0001 72 72.0001C72 72.0001 72 72.0001 72 72.0001C72 72.0001 72 72.0001 72 72.0001C72 72.0001 72 72.0001 72 72.0001C72 72.0001 72 72.0001 72 72.0001C72 72.0001 72 72.0001 72 72.0001C72 72.0001 72 72.0001 72 72.0001C72 72.0001 72 72.0001 72 72.0001C72 72.0001 72 72.0001 72 72.0001C72 72.0001 72 72.0001 72 72.0001C72 72.0001 72 72.0001 72 72.0001C72 72.0001 72 72.0001 72 72.0001C72 72.0001 72 72.0001 72 72.0001C72 72.0001 72 72.0001 72 72.0001C72 72.0001 72 72.0001 72 72.0001C72 72.0001 72 72.0001 72 72.0001C72 72.0001 72 72.0001 72 72.0001C72 72.0001 72 72.0001 72 72.0001C72 72.0001 72 72.0001 72 72.0001C72 72.0001 72 72.0001 72 72.0001C72 72.0001 72 72.0001 72 72.0001C72 72.0001 72 72.0001 72 72.0001C72 72.0001 72 72.0001 72 72.0001C72 72.0001 72 72.0001 72 72.0001C72 72.0001 72 72.0001 72 72.0001C72 72.0001 72 72.0001 72 72.0001C72 72.0001 72 72.0001 72 72.0001C72 72.0001 72 72.0001 72 72.0001C72 72.0001 72 72.0001 72 72.0001C72 72.0001 72 72.0001 72 72.0001C72 72.0001 72 72.0001 72 72.0001C72 72.0001 72 72.0001 72 72.0001C72 72.0001 72 72.0001 72 72.0001C72 72.0001 72 72.0001 72 72.0001C72 72.0001 72 72.0001 72 72.0001C72 72.0001 72 72.0001 72 72.0001C72 72.0001 72 72.0001 72 72.0001C72 72.0001 72 72.0001 72 72.0001C72 72.0001 72 72.0001 72 72.0001C72 72.0001 72 72.0001 72 72.0001C72 72.0001 72 72.0001 72 72.0001C72 72.0001 72 72.0001 72 72.0001C72 72.0001 72 72.0001 72 72.0001C72 72.0001 72 72.0001 72 72.0001C72 72.0001 72 72.0001 72 72.0001C72 72.0001 72 72.0001 72 72.0001C72 72.0001 72 72.0001 72 72.0001C72 72.0001 72 72.0001 72 72.0001C72 72.0001 72 72.0001 72 72.0001C72 72.0001 72 72.0001 72 72.0001C72 72.0001 72 72.0001 72 72.0001C72 72.0001 72 72.0001 72 72.0001C72 72.0001 72 72.0001 72 72.0001C72 72.0001 72 72.0001 72 72.0001C72 72.0001 72 72.0001 72 72.0001C72 72.0001 72 72.0001 72 72.0001C72 72.0001 72 72.0001 72 72.0001C72 72.0001 72 72.0001 72 72.0001C72 72.0001 72 72.0001 72 72.0001C72 72.0001 72 72.0001 72 72.0001C72 72.0001 72 72.0001 72 72.0001C72 72.0001 72 72.0001 72 72.0001C72 72.0001 72 72.0001 72 72.0001C72 72.0001 72 72.0001 72 72.0001C72 72.0001 72 72.0001 72 72.0001C72 72.0001 72 72.0001 72 72.0001C72 72.0001 72 72.0001 72 72.0001C72 72.0001 72 72.0001 72 72.0001C72 72.0001 72 72.0001 72 72.0001C72 72.0001 72 72.0001 72 72.0001C72 72.0001 72 72.0001 72 72.0001C72 72.0001 72 72.0001 72 72.0001C72 72.0001 72 72.0001 72 72.0001C72 72.0001 72 72.0001 72 72.0001C72 72.0001 72 72.0001 72 72.0001C72 72.0001 72 72.0001 72 72.0001C72 72.0001 72 72.0001 72 72.0001C72 72.0001 72 72.0001 72 72.0001C72 72.0001 72 72.0001 72 72.0001C72 72.0001 72 72.0001 72 72.0001C72 72.0001 72 72.0001 72 72.0001C72 72.0001 72 72.0001 72 72.0001C72 72.0001 72 72.0001 72 72.0001C72 72.0001 72 72.0001 72 72.0001C72 72.0001 72 72.0001 72 72.0001C72 72.0001 72 72.0001 72 72.0001C72 72.0001 72 72.0001 72 72.0001C72 72.0001 72 72.0001 72 72.0001C72 72.0001 72 72.0001 72 72.0001C72 72.0001 72 72.0001 72 72.0001C72 72.0001 72 72.0001 72 72.0001C72 72.0001 72 72.0001 72 72.0001C72 72.0001 72 72.0001 72 72.0001C72 72.0001 72 72.0001 72 72.0001C72 72.0001 72 72.0001 72 72.0001C72 72.0001 72 72.0001 72 72.0001C72 72.0001 72 72.0001 72 72.0001C72 72.0001 72 72.0001 72 72.0001C72 72.0001 72 72.0001 72 72.0001C72 72.0001 72 72.0001 72 72.0001C72 72.0001 72 72.0001 72 72.0001C72 72.0001 72 72.0001 72 72.0001C72 72.0001 72 72.0001 72 72.0001C72 72.0001 72 72.0001 72 72.0001C72 72.0001 72 72.0001 72 72.0001C72 72.0001 72 72.0001 72 72.0001C72 72.0001 72 72.0001 72 72.0001C72 72.0001 72 72.0001 72 72.0001C72 72.0001 72 72.0001 72 72.0001C72 72.0001 72 72.0001 72 72.0001C72 72.0001 72 72.0001 72 72.0001C72 72.0001 72 72.0001 72 72.0001C72 72.0001 72 72.0001 72 72.0001C72 72.0001 72 72.0001 72 72.0001C72 72.0001 72 72.0001 72 72.0001C72 72.0001 72 72.0001 72 72.0001C72 72.0001 72 72.0001 72 72.0001C72 72.0001 72 72.0001 72 72.0001C72 72.0001 72 72.0001 72 72.0001C72 72.0001 72 72.0001 72 72.0001C72 72.0001 72 72.0001 72 72.0001C72 72.0001 72 72.0001 72 72.0001C72 72.0001 72 72.0001 72 72.0001C72 72.0001 72 72.0001 72 72.0001C72 72.0001 72 72.0001 72 72.0001C72 72.0001 72 72.0001 72 72.0001C72 72.0001 72 72.0001 72 72.0001C72 72.0001 72 72.0001 72 72.0001C72 72.0001 72 72.0001 72 72.0001C72 72.0001 72 72.0001 72 72.0001C72 72.0001 72 72.0001 72 72.0001C72 72.0001 72 72.0001 72 72.0001C72 72.0001 72 72.0001 72 72.0001C72 72.0001 72 72.0001 72 72.0001C72 72.0001 72 72.0001 72 72.0001C72 72.0001 72 72.0001 72 72.0001C72 72.0001 72 72.0001 72 72.0001C72 72.0001 72 72.0001 72 72.0001C72 72.0001 72 72.0001 72 72.0001C72 72.0001 72 72.0001 72 72.0001C72 72.0001 72 72.0001 72 72.0001C72 72.0001 72 72.0001 72 72.0001C72 72.0001 72 72.0001 72 72.0001C72 72.0001 72 72.0001 72 72.0001C72 72.0001 72 72.0001 72 72.0001C72 72.0001 72 72.0001 72 72.0001C72 72.0001 72 72.0001 72 72.0001C72 72.0001 72 72.0001 72 72.0001C72 72.0001 72 72.0001 72 72.0001C72 72.0001 72 72.0001 72 72.0001C72 72.0001 72 72.0001 72 72.0001C72 72.0001 72 72.0001 72 72.0001C72 72.0001 72 72.0001 72 72.0001C72 72.0001 72 72.0001 72 72.0001C72 72.0001 72 72.0001 72 72.0001C72 72.0001 72 72.0001 72 72.0001C72 72.0001 72 72.0001 72 72.0001C72 72.0001 72 72.0001 72 72.0001C72 72.0001 72 72.0001 72 72.0001C72 72.0001 72 72.0001 72 72.0001C72 72.0001 72 72.0001 72 72.0001C72 72.0001 72 72.0001 72 72.0001C72 72.0001 72 72.0001 72 72.0001C72 72.0001 72 72.0001 72 72.0001C72 72.0001 72 72.0001 72 72.0001C72 72.0001 72 72.0001 72 72.0001C72 72.0001 72 72.0001 72 72.0001C72 72.0001 72 72.0001 72 72.0001C72 72.0001 72 72.0001 72 72.0001C72 72.0001 72 72.0001 72 72.0001C72 72.0001 72 72.0001 72 72.0001C72 72.0001 72 72.0001 72 72.0001C72 72.0001 72 72.0001 72 72.0001C72 72.0001 72 72.0001 72 72.0001C72 72.0001 72 72.0001 72 72.0001C72 72.0001 72 72.0001 72 72.0001C72 72.0001 72 72.0001 72 72.0001C72 72.0001 72 72.0001 72 72.0001C72 72.0001 72 72.0001 72 72.0001C72 72.0001 72 72.0001 72 72.0001C72 72.0001 72 72.0001 72 72.0001C72 72.0001 72 72.0001 72 72.0001C72 72.0001 72 72.0001 72 72.0001C72 72.0001 72 72.0001 72 72.0001C72 72.0001 72 72.0001 72 72.0001C72 72.0001 72 72.0001 72 72.0001C72 72.0001 72 72.0001 72 72.0001C72 72.0001 72 72.0001 72 72.0001C72 72.0001 72 72.0001 72 72.0001C72 72.0001 72 72.0001 72 72.0001C72 72.0001 72 72.0001 72 72.0001C72 72.0001 72 72.0001 72 72.0001C72 72.0001 72 72.0001 72 72.0001C72 72.0001 72 72.0001 72 72.0001C72 72.0001 72 72.0001 72 72.0001C72 72.0001 72 72.0001 72 72.0001C72 72.0001 72 72.0001 72 72.0001C72 72.0001 72 72.0001 72 72.0001C72 72.0001 72 72.0001 72 72.0001C72 72.0001 72 72.0001 72 72.0001C72 72.0001 72 72.0001 72 72.0001C72 72.0001 72 72.0001 72 72.0001C72 72.0001 72 72.0001 72 72.0001C72 72.0001 72 72.0001 72 72.0001C72 72.0001 72 72.0001 72 72.0001C72 72.0001 72 72.0001 72 72.0001C72 72.0001 72 72.0001 72 72.0001C72 72.0001 72 72.0001 72 72.0001C72 72.0001 72 72.0001 72 72.0001C72 72.0001 72 72.0001 72 72.0001C72 72.0001 72 72.0001 72 72.0001C72 72.0001 72 72.0001 72 72.0001C72 72.0001 72 72.0001 72 72.0001C72 72.0001 72 72.0001 72 72.0001C72 72.0001 72 72.0001 72 72.0001C72 72.0001 72 72.0001 72 72.0001C72 72.0001 72 72.0001 72 72.0001C72 72.0001 72 72.0001 72 72.0001C72 72.0001 72 72.0001 72 72.0001C72 72.0001 72 72.0001 72 72.0001C72 72.0001 72 72.0001 72 72.0001C72 72.0001 72 72.0001 72 72.0001C72 72.0001 72 72.0001 72 72.0001C72 72.0001 72 72.0001 72 72.0001C72 72.0001 72 72.0001 72 72.0001C72 72.0001 72 72.0001 72 72.0001C72 72.0001 72 72.0001 72 72.0001C72 72.0001 72 72.0001 72 72.0001C72 72.0001 72 72.0001 72 72.0001C72 72.0001 72 72.0001 72 72.0001C72 72.0001 72 72.0001 72 72.0001C72 72.0001 72 72.0001 72 72.0001C72 72.0001 72 72.0001 72 72.0001C72 72.0001 72 72.0001 72 72.0001H78C78 72.0001 78 72.0001 78 72.0001C78 72.0001 78 72.0001 78 72.0001C78 72.0001 78 72.0001 78 72.0001C78 72.0001 78 72.0001 78 72.0001C78 72.0001 78 72.0001 78 72.0001C78 72.0001 78 72.0001 78 72.0001C78 72.0001 78 72.0001 78 72.0001C78 72.0001 78 72.0001 78 72.0001C78 72.0001 78 72.0001 78 72.0001C78 72.0001 78 72.0001 78 72.0001C78 72.0001 78 72.0001 78 72.0001C78 72.0001 78 72.0001 78 72.0001C78 72.0001 78 72.0001 78 72.0001C78 72.0001 78 72.0001 78 72.0001C78 72.0001 78 72.0001 78 72.0001C78 72.0001 78 72.0001 78 72.0001C78 72.0001 78 72.0001 78 72.0001C78 72.0001 78 72.0001 78 72.0001C78 72.0001 78 72.0001 78 72.0001C78 72.0001 78 72.0001 78 72.0001C78 72.0001 78 72.0001 78 72.0001C78 72.0001 78 72.0001 78 72.0001C78 72.0001 78 72.0001 78 72.0001C78 72.0001 78 72.0001 78 72.0001C78 72.0001 78 72.0001 78 72.0001C78 72.0001 78 72.0001 78 72.0001C78 72.0001 78 72.0001 78 72.0001C78 72.0001 78 72.0001 78 72.0001C78 72.0001 78 72.0001 78 72.0001C78 72.0001 78 72.0001 78 72.0001C78 72.0001 78 72.0001 78 72.0001C78 72.0001 78 72.0001 78 72.0001C78 72.0001 78 72.0001 78 72.0001C78 72.0001 78 72.0001 78 72.0001C78 72.0001 78 72.0001 78 72.0001C78 72.0001 78 72.0001 78 72.0001C78 72.0001 78 72.0001 78 72.0001C78 72.0001 78 72.0001 78 72.0001C78 72.0001 78 72.0001 78 72.0001C78 72.0001 78 72.0001 78 72.0001C78 72.0001 78 72.0001 78 72.0001C78 72.0001 78 72.0001 78 72.0001C78 72.0001 78 72.0001 78 72.0001C78 72.0001 78 72.0001 78 72.0001C78 72.0001 78 72.0001 78 72.0001C78 72.0001 78 72.0001 78 72.0001C78 72.0001 78 72.0001 78 72.0001C78 72.0001 78 72.0001 78 72.0001C78 72.0001 78 72.0001 78 72.0001C78 72.0001 78 72.0001 78 72.0001C78 72.0001 78 72.0001 78 72.0001C78 72.0001 78 72.0001 78 72.0001C78 72.0001 78 72.0001 78 72.0001C78 72.0001 78 72.0001 78 72.0001C78 72.0001 78 72.0001 78 72.0001C78 72.0001 78 72.0001 78 72.0001C78 72.0001 78 72.0001 78 72.0001C78 72.0001 78 72.0001 78 72.0001C78 72.0001 78 72.0001 78 72.0001C78 72.0001 78 72.0001 78 72.0001C78 72.0001 78 72.0001 78 72.0001C78 72.0001 78 72.0001 78 72.0001C78 72.0001 78 72.0001 78 72.0001C78 72.0001 78 72.0001 78 72.0001C78 72.0001 78 72.0001 78 72.0001C78 72.0001 78 72.0001 78 72.0001C78 72.0001 78 72.0001 78 72.0001C78 72.0001 78 72.0001 78 72.0001C78 72.0001 78 72.0001 78 72.0001C78 72.0001 78 72.0001 78 72.0001C78 72.0001 78 72.0001 78 72.0001C78 72.0001 78 72.0001 78 72.0001C78 72.0001 78 72.0001 78 72.0001C78 72.0001 78 72.0001 78 72.0001C78 72.0001 78 72.0001 78 72.0001C78 72.0001 78 72.0001 78 72.0001C78 72.0001 78 72.0001 78 72.0001C78 72.0001 78 72.0001 78 72.0001C78 72.0001 78 72.0001 78 72.0001C78 72.0001 78 72.0001 78 72.0001C78 72.0001 78 72.0001 78 72.0001C78 72.0001 78 72.0001 78 72.0001C78 72.0001 78 72.0001 78 72.0001C78 72.0001 78 72.0001 78 72.0001C78 72.0001 78 72.0001 78 72.0001C78 72.0001 78 72.0001 78 72.0001C78 72.0001 78 72.0001 78 72.0001C78 72.0001 78 72.0001 78 72.0001C78 72.0001 78 72.0001 78 72.0001C78 72.0001 78 72.0001 78 72.0001C78 72.0001 78 72.0001 78 72.0001C78 72.0001 78 72.0001 78 72.0001C78 72.0001 78 72.0001 78 72.0001C78 72.0001 78 72.0001 78 72.0001C78 72.0001 78 72.0001 78 72.0001C78 72.0001 78 72.0001 78 72.0001C78 72.0001 78 72.0001 78 72.0001C78 72.0001 78 72.0001 78 72.0001C78 72.0001 78 72.0001 78 72.0001C78 72.0001 78 72.0001 78 72.0001C78 72.0001 78 72.0001 78 72.0001C78 72.0001 78 72.0001 78 72.0001C78 72.0001 78 72.0001 78 72.0001C78 72.0001 78 72.0001 78 72.0001C78 72.0001 78 72.0001 78 72.0001C78 72.0001 78 72.0001 78 72.0001C78 72.0001 78 72.0001 78 72.0001C78 72.0001 78 72.0001 78 72.0001C78 72.0001 78 72.0001 78 72.0001C78 72.0001 78 72.0001 78 72.0001C78 72.0001 78 72.0001 78 72.0001C78 72.0001 78 72.0001 78 72.0001C78 72.0001 78 72.0001 78 72.0001C78 72.0001 78 72.0001 78 72.0001C78 72.0001 78 72.0001 78 72.0001C78 72.0001 78 72.0001 78 72.0001C78 72.0001 78 72.0001 78 72.0001C78 72.0001 78 72.0001 78 72.0001C78 72.0001 78 72.0001 78 72.0001C78 72.0001 78 72.0001 78 72.0001C78 72.0001 78 72.0001 78 72.0001C78 72.0001 78 72.0001 78 72.0001C78 72.0001 78 72.0001 78 72.0001C78 72.0001 78 72.0001 78 72.0001C78 72.0001 78 72.0001 78 72.0001C78 72.0001 78 72.0001 78 72.0001C78 72.0001 78 72.0001 78 72.0001C78 72.0001 78 72.0001 78 72.0001C78 72.0001 78 72.0001 78 72.0001C78 72.0001 78 72.0001 78 72.0001C78 72.0001 78 72.0001 78 72.0001C78 72.0001 78 72.0001 78 72.0001C78 72.0001 78 72.0001 78 72.0001C78 72.0001 78 72.0001 78 72.0001C78 72.0001 78 72.0001 78 72.0001C78 72.0001 78 72.0001 78 72.0001C78 72.0001 78 72.0001 78 72.0001C78 72.0001 78 72.0001 78 72.0001C78 72.0001 78 72.0001 78 72.0001C78 72.0001 78 72.0001 78 72.0001C78 72.0001 78 72.0001 78 72.0001C78 72.0001 78 72.0001 78 72.0001C78 72.0001 78 72.0001 78 72.0001C78 72.0001 78 72.0001 78 72.0001C78 72.0001 78 72.0001 78 72.0001C78 72.0001 78 72.0001 78 72.0001C78 72.0001 78 72.0001 78 72.0001C78 72.0001 78 72.0001 78 72.0001C78 72.0001 78 72.0001 78 72.0001C78 72.0001 78 72.0001 78 72.0001C78 72.0001 78 72.0001 78 72.0001C78 72.0001 78 72.0001 78 72.0001C78 72.0001 78 72.0001 78 72.0001C78 72.0001 78 72.0001 78 72.0001C78 72.0001 78 72.0001 78 72.0001C78 72.0001 78 72.0001 78 72.0001C78 72.0001 78 72.0001 78 72.0001C78 72.0001 78 72.0001 78 72.0001C78 72.0001 78 72.0001 78 72.0001C78 72.0001 78 72.0001 78 72.0001C78 72.0001 78 72.0001 78 72.0001C78 72.0001 78 72.0001 78 72.0001C78 72.0001 78 72.0001 78 72.0001C78 72.0001 78 72.0001 78 72.0001C78 72.0001 78 72.0001 78 72.0001C78 72.0001 78 72.0001 78 72.0001C78 72.0001 78 72.0001 78 72.0001C78 72.0001 78 72.0001 78 72.0001C78 72.0001 78 72.0001 78 72.0001C78 72.0001 78 72.0001 78 72.0001C78 72.0001 78 72.0001 78 72.0001C78 72.0001 78 72.0001 78 72.0001C78 72.0001 78 72.0001 78 72.0001C78 72.0001 78 72.0001 78 72.0001C78 72.0001 78 72.0001 78 72.0001C78 72.0001 78 72.0001 78 72.0001C78 72.0001 78 72.0001 78 72.0001C78 72.0001 78 72.0001 78 72.0001C78 72.0001 78 72.0001 78 72.0001C78 72.0001 78 72.0001 78 72.0001C78 72.0001 78 72.0001 78 72.0001C78 72.0001 78 72.0001 78 72.0001C78 72.0001 78 72.0001 78 72.0001C78 72.0001 78 72.0001 78 72.0001C78 72.0001 78 72.0001 78 72.0001C78 72.0001 78 72.0001 78 72.0001C78 72.0001 78 72.0001 78 72.0001C78 72.0001 78 72.0001 78 72.0001C78 72.0001 78 72.0001 78 72.0001C78 72.0001 78 72.0001 78 72.0001C78 72.0001 78 72.0001 78 72.0001C78 72.0001 78 72.0001 78 72.0001C78 72.0001 78 72.0001 78 72.0001C78 72.0001 78 72.0001 78 72.0001C78 72.0001 78 72.0001 78 72.0001C78 72.0001 78 72.0001 78 72.0001C78 72.0001 78 72.0001 78 72.0001C78 72.0001 78 72.0001 78 72.0001C78 72.0001 78 72.0001 78 72.0001C78 72.0001 78 72.0001 78 72.0001C78 72.0001 78 72.0001 78 72.0001C78 72.0001 78 72.0001 78 72.0001C78 72.0001 78 72.0001 78 72.0001C78 72.0001 78 72.0001 78 72.0001C78 72.0001 78 72.0001 78 72.0001C78 72.0001 78 72.0001 78 72.0001C78 72.0001 78 72.0001 78 72.0001C78 72.0001 78 72.0001 78 72.0001C78 72.0001 78 72.0001 78 72.0001C78 72.0001 78 72.0001 78 72.0001C78 72.0001 78 72.0001 78 72.0001C78 72.0001 78 72.0001 78 72.0001C78 72.0001 78 72.0001 78 72.0001C78 72.0001 78 72.0001 78 72.0001C78 72.0001 78 72.0001 78 72.0001C78 72.0001 78 72.0001 78 72.0001C78 72.0001 78 72.0001 78 72.0001C78 72.0001 78 72.0001 78 72.0001C78 72.0001 78 72.0001 78 72.0001C78 72.0001 78 72.0001 78 72.0001C78 72.0001 78 72.0001 78 72.0001C78 72.0001 78 72.0001 78 72.0001C78 72.0001 78 72.0001 78 72.0001C78 72.0001 78 72.0001 78 72.0001C78 72.0001 78 72.0001 78 72.0001C78 72.0001 78 72.0001 78 72.0001C78 72.0001 78 72.0001 78 72.0001C78 72.0001 78 72.0001 78 72.0001C78 72.0001 78 72.0001 78 72.0001C78 72.0001 78 72.0001 78 72.0001C78 72.0001 78 72.0001 78 72.0001C78 72.0001 78 72.0001 78 72.0001C78 72.0001 78 72.0001 78 72.0001C78 72.0001 78 72.0001 78 72.0001C78 72.0001 78 72.0001 78 72.0001C78 72.0001 78 72.0001 78 72.0001C78 72.0001 78 72.0001 78 72.0001C78 72.0001 78 72.0001 78 72.0001C78 72.0001 78 72.0001 78 72.0001C78 72.0001 78 72.0001 78 72.0001C78 72.0001 78 72.0001 78 72.0001C78 72.0001 78 72.0001 78 72.0001C78 72.0001 78 72.0001 78 72.0001C78 72.0001 78 72.0001 78 72.0001C78 72.0001 78 72.0001 78 72.0001C78 72.0001 78 72.0001 78 72.0001C78 72.0001 78 72.0001 78 72.0001C78 72.0001 78 72.0001 78 72.0001C78 72.0001 78 72.0001 78 72.0001C78 72.0001 78 72.0001 78 72.0001C78 72.0001 78 72.0001 78 72.0001C78 72.0001 78 72.0001 78 72.0001C78 72.0001 78 72.0001 78 72.0001C78 72.0001 78 72.0001 78 72.0001C78 72.0001 78 72.0001 78 72.0001C78 72.0001 78 72.0001 78 72.0001C78 72.0001 78 72.0001 78 72.0001C78 72.0001 78 72.0001 78 72.0001C78 72.0001 78 72.0001 78 72.0001C78 72.0001 78 72.0001 78 72.0001C78 72.0001 78 72.0001 78 72.0001C78 72.0001 78 72.0001 78 72.0001C78 72.0001 78 72.0001 78 72.0001C78 72.0001 78 72.0001 78 72.0001C78 72.0001 78 72.0001 78 72.0001C78 72.0001 78 72.0001 78 72.0001C78 72.0001 78 72.0001 78 72.0001C78 72.0001 78 72.0001 78 72.0001C78 72.0001 78 72.0001 78 72.0001C78 72.0001 78 72.0001 78 72.0001C78 72.0001 78 72.0001 78 72.0001C78 72.0001 78 72.0001 78 72.0001C78 72.0001 78 72.0001 78 72.0001C78 72.0001 78 72.0001 78 72.0001C78 72.0001 78 72.0001 78 72.0001C78 72.0001 78 72.0001 78 72.0001C78 72.0001 78 72.0001 78 72.0001C78 72.0001 78 72.0001 78 72.0001C78 72.0001 78 72.0001 78 72.0001C78 72.0001 78 72.0001 78 72.0001C78 72.0001 78 72.0001 78 72.0001C78 72.0001 78 72.0001 78 72.0001C78 72.0001 78 72.0001 78 72.0001C78 72.0001 78 72.0001 78 72.0001C78 72.0001 78 72.0001 78 72.0001C78 72.0001 78 72.0001 78 72.0001C78 72.0001 78 72.0001 78 72.0001C78 72.0001 78 72.0001 78 72.0001C78 72.0001 78 72.0001 78 72.0001C78 72.0001 78 72.0001 78 72.0001C78 72.0001 78 72.0001 78 72.0001C78 72.0001 78 72.0001 78 72.0001C78 72.0001 78 72.0001 78 72.0001C78 72.0001 78 72.0001 78 72.0001C78 72.0001 78 72.0001 78 72.0001C78 72.0001 78 72.0001 78 72.0001C78 72.0001 78 72.0001 78 72.0001C78 72.0001 78 72.0001 78 72.0001C78 72.0001 78 72.0001 78 72.0001C78 72.0001 78 72.0001 78 72.0001C78 72.0001 78 72.0001 78 72.0001C78 72.0001 78 72.0001 78 72.0001C78 72.0001 78 72.0001 78 72.0001C78 72.0001 78 72.0001 78 72.0001C78 72.0001 78 72.0001 78 72.0001C78 72.0001 78 72.0001 78 72.0001C78 72.0001 78 72.0001 78 72.0001C78 72.0001 78 72.0001 78 72.0001C78 72.0001 78 72.0001 78 72.0001C78 72.0001 78 72.0001 78 72.0001C78 72.0001 78 72.0001 78 72.0001C78 72.0001 78 72.0001 78 72.0001C78 72.0001 78 72.0001 78 72.0001C78 72.0001 78 72.0001 78 72.0001C78 72.0001 78 72 78 72C78 72 78 72 78 72C78 72 78 72 78 72C78 72 78 72 78 72C78 72 78 72 78 72C78 72 78 72 78 72C78 72 78 72 78 72C78 72 78 72 78 72C78 72 78 72 78 72C78 72 78 72 78 72C78 72 78 72 78 72C78 72 78 72 78 72C78 72 78 72 78 72C78 72 78 72 78 72C78 72 78 72 78 72C78 72 78 72 78 72C78 72 78 72 78 72C78 72 78 72 78 72C78 72 78 72 78 72C78 72 78 72 78 72C78 72 78 72 78 72C78 72 78 72 78 72C78 72 78 72 78 72C78 72 78 72 78 72C78 72 78 72 78 72C78 72 78 72 78 72C78 72 78 72 78 72C78 72 78 72 78 72C78 72 78 72 78 72C78 72 78 72 78 72C78 72 78 72 78 72C78 72 78 72 78 72C78 72 78 72 78 72C78 72 78 72 78 72C78 72 78 72 78 72C78 72 78 72 78 72C78 72 78 72 78 72C78 72 78 72 78 72C78 72 78 72 78 72C78 72 78 72 78 72C78 72 78 72 78 72C78 72 78 72 78 72C78 72 78 72 78 72C78 72 78 72 78 72C78 72 78 72 78 72C78 72 78 72 78 72C78 72 78 72 78 72C78 72 78 72 78 72C78 72 78 72 78 72C78 72 78 72 78 72C78 72 78 72 78 72C78 72 78 72 78 72C78 72 78 72 78 72C78 72 78 72 78 72C78 72 78 72 78 72C78 72 78 72 78 72C78 72 78 72 78 72C78 72 78 72 78 72C78 72 78 72 78 72C78 72 78 72 78 72C78 72 78 72 78 72C78 72 78 72 78 72C78 72 78 72 78 72C78 72 78 72 78 72C78 72 78 72 78 72C78 72 78 72 78 72C78 72 78 72 78 72C78 72 78 72 78 72C78 72 78 72 78 72C78 72 78 72 78 72C78 72 78 72 78 72C78 72 78 72 78 72C78 72 78 72 78 72C78 72 78 72 78 72C78 72 78 72 78 72C78 72 78 72 78 72C78 72 78 72 78 72C78 72 78 72 78 72C78 72 78 72 78 72C78 72 78 72 78 72C78 72 78 72 78 72C78 72 78 72 78 72C78 72 78 72 78 72C78 72 78 72 78 72C78 72 78 72 78 72C78 72 78 72 78 72C78 72 78 72 78 72C78 72 78 72 78 72C78 72 78 72 78 72C78 72 78 72 78 72C78 72 78 72 78 72C78 72 78 72 78 72C78 72 78 72 78 72C78 72 78 72 78 72C78 72 78 72 78 72C78 72 78 72 78 72C78 72 78 72 78 72C78 72 78 72 78 72C78 72 78 72 78 72C78 72 78 72 78 72C78 72 78 72 78 72C78 72 78 72 78 72C78 72 78 72 78 72C78 72 78 72 78 72C78 72 78 72 78 72C78 72 78 72 78 72C78 72 78 72 78 72C78 72 78 72 78 72C78 72 78 72 78 72C78 72 78 72 78 72C78 72 78 72 78 72C78 72 78 72 78 72C78 72 78 72 78 72C78 72 78 72 78 72C78 72 78 72 78 72C78 72 78 72 78 72C78 72 78 72 78 72C78 72 78 72 78 72C78 72 78 72 78 72C78 72 78 72 78 72C78 72 78 72 78 72C78 72 78 72 78 72C78 72 78 72 78 72C78 72 78 72 78 72C78 72 78 72 78 72C78 72 78 72 78 72C78 72 78 72 78 72C78 72 78 72 78 72C78 72 78 72 78 72C78 72 78 72 78 72C78 72 78 72 78 72C78 72 78 72 78 72C78 72 78 72 78 72C78 72 78 72 78 72C78 72 78 72 78 72C78 72 78 72 78 72C78 72 78 72 78 72C78 72 78 72 78 72C78 72 78 72 78 72C78 72 78 72 78 72C78 72 78 72 78 72C78 72 78 72 78 72C78 72 78 72 78 72C78 72 78 72 78 72C78 72 78 72 78 72C78 72 78 72 78 72C78 72 78 72 78 72C78 72 78 72 78 72C78 72 78 72 78 72C78 72 78 72 78 72C78 72 78 72 78 72C78 72 78 72 78 72C78 72 78 72 78 72C78 72 78 72 78 72C78 72 78 72 78 72C78 72 78 72 78 72C78 72 78 72 78 72C78 72 78 72 78 72C78 72 78 72 78 72C78 72 78 72 78 72C78 72 78 72 78 72C78 72 78 72 78 72C78 72 78 72 78 72C78 72 78 72 78 72C78 72 78 72 78 72C78 72 78 72 78 72C78 72 78 72 78 72C78 72 78 72 78 72C78 72 78 72 78 72C78 72 78 72 78 72C78 72 78 72 78 72C78 72 78 72 78 72C78 72 78 72 78 72C78 72 78 72 78 72C78 72 78 72 78 72C78 72 78 72 78 72C78 72 78 72 78 72C78 72 78 72 78 72C78 72 78 72 78 72C78 72 78 72 78 72C78 72 78 72 78 72C78 72 78 72 78 72C78 72 78 72 78 72C78 72 78 72 78 72C78 72 78 72 78 72C78 72 78 72 78 72C78 72 78 72 78 72C78 72 78 72 78 72C78 72 78 72 78 72C78 72 78 72 78 72C78 72 78 72 78 72C78 72 78 72 78 72C78 72 78 72 78 72C78 72 78 72 78 72C78 72 78 72 78 72C78 72 78 72 78 72C78 72 78 72 78 72C78 72 78 72 78 72H72ZM75 69H45V75H75V69Z" fill="#3E3A39" mask="url(#path-5-inside-1_140_87)"/>
</svg>
