<svg width="125" height="125" viewBox="0 0 125 125" fill="none" xmlns="http://www.w3.org/2000/svg">
<mask id="path-1-inside-1_140_48" fill="white">
<path fill-rule="evenodd" clip-rule="evenodd" d="M74.1232 34.9402L63.4203 2L54.5584 29.2741L33.136 9.98528L40.3891 44.1084H5.46308L28.8337 61.0881L4 75.4259L38.3884 79.0402L27.6008 112.241L51.2231 95.0784L57.2342 123.358L71.2408 91.8987L99.2398 112.241L90.2223 84.4882L119.271 87.5413L93.5155 64.3512L121.377 44.1084H92.5184L104.377 17.473L74.1232 34.9402Z"/>
</mask>
<path fill-rule="evenodd" clip-rule="evenodd" d="M74.1232 34.9402L63.4203 2L54.5584 29.2741L33.136 9.98528L40.3891 44.1084H5.46308L28.8337 61.0881L4 75.4259L38.3884 79.0402L27.6008 112.241L51.2231 95.0784L57.2342 123.358L71.2408 91.8987L99.2398 112.241L90.2223 84.4882L119.271 87.5413L93.5155 64.3512L121.377 44.1084H92.5184L104.377 17.473L74.1232 34.9402Z" fill="#3E3A39"/>
<path d="M63.4203 2L66.2734 1.07295L63.4203 -7.7082L60.5671 1.07295L63.4203 2ZM74.1232 34.9402L71.27 35.8673L72.4148 39.3906L75.6232 37.5383L74.1232 34.9402ZM54.5584 29.2741L52.551 31.5035L55.984 34.5946L57.4115 30.2011L54.5584 29.2741ZM33.136 9.98528L35.1434 7.75584L28.2819 1.57773L30.2016 10.609L33.136 9.98528ZM40.3891 44.1084V47.1084H44.0938L43.3235 43.4846L40.3891 44.1084ZM5.46308 44.1084V41.1084H-3.76997L3.69973 46.5354L5.46308 44.1084ZM28.8337 61.0881L30.3337 63.6862L34.3344 61.3764L30.5971 58.6611L28.8337 61.0881ZM4 75.4259L2.5 72.8278L-5.49605 77.4443L3.68641 78.4094L4 75.4259ZM38.3884 79.0402L41.2415 79.9673L42.3864 76.4439L38.702 76.0567L38.3884 79.0402ZM27.6008 112.241L24.7476 111.314L21.8944 120.095L29.3641 114.668L27.6008 112.241ZM51.2231 95.0784L54.1576 94.4547L53.1971 89.9361L49.4598 92.6514L51.2231 95.0784ZM57.2342 123.358L54.2997 123.982L56.2194 133.013L59.9748 124.578L57.2342 123.358ZM71.2408 91.8987L73.0042 89.4716L70.007 87.2941L68.5002 90.6785L71.2408 91.8987ZM99.2398 112.241L97.4764 114.668L104.946 120.095L102.093 111.314L99.2398 112.241ZM90.2223 84.4882L90.5359 81.5046L85.9416 81.0217L87.3691 85.4152L90.2223 84.4882ZM119.271 87.5413L118.957 90.5249L128.14 91.49L121.278 85.3119L119.271 87.5413ZM93.5155 64.3512L91.7522 61.9242L88.755 64.1017L91.5081 66.5807L93.5155 64.3512ZM121.377 44.1084L123.141 46.5354L130.61 41.1084H121.377V44.1084ZM92.5184 44.1084L89.7778 42.8881L87.8988 47.1084H92.5184V44.1084ZM104.377 17.473L107.118 18.6932L110.873 10.2584L102.877 14.875L104.377 17.473ZM60.5671 2.92705L71.27 35.8673L76.9764 34.0132L66.2734 1.07295L60.5671 2.92705ZM57.4115 30.2011L66.2734 2.92705L60.5671 1.07295L51.7052 28.347L57.4115 30.2011ZM31.1286 12.2147L52.551 31.5035L56.5658 27.0446L35.1434 7.75584L31.1286 12.2147ZM43.3235 43.4846L36.0705 9.36154L30.2016 10.609L37.4547 44.7321L43.3235 43.4846ZM5.46308 47.1084H40.3891V41.1084H5.46308V47.1084ZM30.5971 58.6611L7.22644 41.6813L3.69973 46.5354L27.0704 63.5152L30.5971 58.6611ZM5.5 78.0239L30.3337 63.6862L27.3337 58.49L2.5 72.8278L5.5 78.0239ZM38.702 76.0567L4.31359 72.4423L3.68641 78.4094L38.0748 82.0238L38.702 76.0567ZM30.4539 113.168L41.2415 79.9673L35.5352 78.1132L24.7476 111.314L30.4539 113.168ZM49.4598 92.6514L25.8374 109.814L29.3641 114.668L52.9865 97.5055L49.4598 92.6514ZM60.1686 122.734L54.1576 94.4547L48.2887 95.7022L54.2997 123.982L60.1686 122.734ZM68.5002 90.6785L54.4935 122.138L59.9748 124.578L73.9814 93.1189L68.5002 90.6785ZM101.003 109.814L73.0042 89.4716L69.4774 94.3257L97.4764 114.668L101.003 109.814ZM87.3691 85.4152L96.3866 113.168L102.093 111.314L93.0755 83.5611L87.3691 85.4152ZM119.584 84.5577L90.5359 81.5046L89.9087 87.4717L118.957 90.5249L119.584 84.5577ZM91.5081 66.5807L117.263 89.7707L121.278 85.3119L95.5229 62.1218L91.5081 66.5807ZM119.614 41.6813L91.7522 61.9242L95.2789 66.7783L123.141 46.5354L119.614 41.6813ZM92.5184 47.1084H121.377V41.1084H92.5184V47.1084ZM101.637 16.2528L89.7778 42.8881L95.2591 45.3286L107.118 18.6932L101.637 16.2528ZM75.6232 37.5383L105.877 20.0711L102.877 14.875L72.6232 32.3421L75.6232 37.5383Z" fill="#C08020" mask="url(#path-1-inside-1_140_48)"/>
<circle cx="60.5329" cy="62.6441" r="31.3365" fill="#3E3A39" stroke="#C08020" stroke-width="3"/>
<path d="M49.2707 59.6858C49.2707 61.9074 48.8953 63.8485 48.345 65.1785C48.0684 65.8469 47.7771 66.2894 47.5304 66.5416C47.4113 66.6634 47.322 66.7208 47.2714 66.7459C47.247 66.7579 47.2321 66.7622 47.2263 66.7637C47.2232 66.7644 47.2216 66.7647 47.2211 66.7647C47.221 66.7647 47.2209 66.7647 47.2209 66.7647C47.2208 66.7647 47.2207 66.7647 47.2206 66.7647C47.2203 66.7647 47.2198 66.7646 47.2189 66.7644C47.2181 66.7643 47.2169 66.764 47.2154 66.7637C47.2096 66.7622 47.1947 66.7579 47.1703 66.7459C47.1197 66.7208 47.0304 66.6634 46.9113 66.5416C46.6646 66.2894 46.3733 65.8469 46.0967 65.1785C45.5464 63.8485 45.171 61.9074 45.171 59.6858C45.171 57.4642 45.5464 55.5231 46.0967 54.1932C46.3733 53.5248 46.6646 53.0823 46.9113 52.8301C47.0304 52.7083 47.1197 52.6509 47.1703 52.6258C47.1947 52.6137 47.2096 52.6094 47.2154 52.608C47.2185 52.6072 47.2201 52.607 47.2206 52.607C47.2207 52.6069 47.2208 52.6069 47.2208 52.6069C47.2209 52.6069 47.221 52.6069 47.2211 52.607C47.2216 52.607 47.2232 52.6072 47.2263 52.608C47.2321 52.6094 47.247 52.6137 47.2714 52.6258C47.322 52.6509 47.4113 52.7083 47.5304 52.8301C47.7771 53.0823 48.0684 53.5248 48.345 54.1932C48.8953 55.5231 49.2707 57.4642 49.2707 59.6858Z" fill="#C08020" stroke="#C08020" stroke-width="3"/>
<path d="M76.4866 59.6858C76.4866 61.9074 76.1111 63.8485 75.5608 65.1785C75.2842 65.8469 74.993 66.2894 74.7462 66.5416C74.6271 66.6634 74.5379 66.7208 74.4872 66.7459C74.4628 66.7579 74.448 66.7622 74.4421 66.7637C74.439 66.7644 74.4374 66.7647 74.437 66.7647C74.4368 66.7647 74.4367 66.7647 74.4367 66.7647C74.4366 66.7647 74.4365 66.7647 74.4364 66.7647C74.4362 66.7647 74.4356 66.7646 74.4348 66.7644C74.4339 66.7643 74.4328 66.764 74.4313 66.7637C74.4254 66.7622 74.4106 66.7579 74.3862 66.7459C74.3355 66.7208 74.2463 66.6634 74.1271 66.5416C73.8804 66.2894 73.5891 65.8469 73.3126 65.1785C72.7622 63.8485 72.3868 61.9074 72.3868 59.6858C72.3868 57.4642 72.7622 55.5231 73.3126 54.1932C73.5891 53.5248 73.8804 53.0823 74.1271 52.8301C74.2463 52.7083 74.3355 52.6509 74.3862 52.6258C74.4106 52.6137 74.4254 52.6094 74.4313 52.608C74.4343 52.6072 74.436 52.607 74.4364 52.607C74.4365 52.6069 74.4366 52.6069 74.4367 52.6069C74.4367 52.6069 74.4368 52.6069 74.437 52.607C74.4374 52.607 74.439 52.6072 74.4421 52.608C74.448 52.6094 74.4628 52.6137 74.4872 52.6258C74.5379 52.6509 74.6271 52.7083 74.7462 52.8301C74.993 53.0823 75.2842 53.5248 75.5608 54.1932C76.1111 55.5231 76.4866 57.4642 76.4866 59.6858Z" fill="#C08020" stroke="#C08020" stroke-width="3"/>
<mask id="path-6-inside-2_140_48" fill="white">
<path fill-rule="evenodd" clip-rule="evenodd" d="M73.2937 36.6718L63.3279 6L55.0763 31.3958L35.1294 13.4355L41.8829 45.2083H9.3623L31.1235 61.0188L8 74.3691L40.0199 77.7346L29.9753 108.649L51.9708 92.668L57.5678 119L70.6099 89.7073L96.6805 108.649L88.2841 82.8073L115.332 85.6502L91.3503 64.0571L117.293 45.2083H90.4221L101.464 20.4076L73.2937 36.6718Z"/>
</mask>
<path fill-rule="evenodd" clip-rule="evenodd" d="M73.2937 36.6718L63.3279 6L55.0763 31.3958L35.1294 13.4355L41.8829 45.2083H9.3623L31.1235 61.0188L8 74.3691L40.0199 77.7346L29.9753 108.649L51.9708 92.668L57.5678 119L70.6099 89.7073L96.6805 108.649L88.2841 82.8073L115.332 85.6502L91.3503 64.0571L117.293 45.2083H90.4221L101.464 20.4076L73.2937 36.6718Z" fill="#C08020"/>
<path d="M63.3279 6L66.1811 5.07295L63.3279 -3.7082L60.4747 5.07295L63.3279 6ZM73.2937 36.6718L70.4406 37.5988L71.5854 41.1222L74.7937 39.2698L73.2937 36.6718ZM55.0763 31.3958L53.0689 33.6253L56.5019 36.7164L57.9295 32.3229L55.0763 31.3958ZM35.1294 13.4355L37.1368 11.2061L30.2753 5.028L32.1949 14.0593L35.1294 13.4355ZM41.8829 45.2083V48.2083H45.5876L44.8173 44.5846L41.8829 45.2083ZM9.3623 45.2083V42.2083H0.129251L7.59895 47.6353L9.3623 45.2083ZM31.1235 61.0188L32.6235 63.6168L36.6242 61.307L32.8869 58.5917L31.1235 61.0188ZM8 74.3691L6.5 71.7711L-1.49606 76.3876L7.68641 77.3527L8 74.3691ZM40.0199 77.7346L42.8731 78.6616L44.0179 75.1382L40.3335 74.751L40.0199 77.7346ZM29.9753 108.649L27.1222 107.722L24.269 116.503L31.7387 111.076L29.9753 108.649ZM51.9708 92.668L54.9052 92.0443L53.9447 87.5256L50.2074 90.241L51.9708 92.668ZM57.5678 119L54.6334 119.624L56.5531 128.655L60.3085 120.22L57.5678 119ZM70.6099 89.7073L72.3733 87.2802L69.3761 85.1027L67.8693 88.4871L70.6099 89.7073ZM96.6805 108.649L94.9171 111.076L102.387 116.503L99.5336 107.722L96.6805 108.649ZM88.2841 82.8073L88.5977 79.8238L84.0034 79.3409L85.4309 83.7344L88.2841 82.8073ZM115.332 85.6502L115.018 88.6337L124.201 89.5989L117.339 83.4207L115.332 85.6502ZM91.3503 64.0571L89.587 61.6301L86.5898 63.8076L89.3429 66.2865L91.3503 64.0571ZM117.293 45.2083L119.057 47.6353L126.527 42.2083H117.293V45.2083ZM90.4221 45.2083L87.6815 43.9881L85.8025 48.2083H90.4221V45.2083ZM101.464 20.4076L104.205 21.6278L107.96 13.193L99.9641 17.8095L101.464 20.4076ZM60.4747 6.92705L70.4406 37.5988L76.1469 35.7447L66.1811 5.07295L60.4747 6.92705ZM57.9295 32.3229L66.1811 6.92705L60.4747 5.07295L52.2231 30.4688L57.9295 32.3229ZM33.122 15.665L53.0689 33.6253L57.0837 29.1664L37.1368 11.2061L33.122 15.665ZM44.8173 44.5846L38.0638 12.8118L32.1949 14.0593L38.9484 45.832L44.8173 44.5846ZM9.3623 48.2083H41.8829V42.2083H9.3623V48.2083ZM32.8869 58.5917L11.1257 42.7812L7.59895 47.6353L29.3602 63.4458L32.8869 58.5917ZM9.5 76.9672L32.6235 63.6168L29.6235 58.4207L6.5 71.7711L9.5 76.9672ZM40.3335 74.751L8.31359 71.3856L7.68641 77.3527L39.7063 80.7181L40.3335 74.751ZM32.8285 109.576L42.8731 78.6616L37.1667 76.8075L27.1222 107.722L32.8285 109.576ZM50.2074 90.241L28.212 106.222L31.7387 111.076L53.7341 95.0951L50.2074 90.241ZM60.5023 118.376L54.9052 92.0443L49.0363 93.2917L54.6334 119.624L60.5023 118.376ZM67.8693 88.4871L54.8272 117.78L60.3085 120.22L73.3505 90.9275L67.8693 88.4871ZM98.4438 106.222L72.3733 87.2802L68.8465 92.1343L94.9171 111.076L98.4438 106.222ZM85.4309 83.7344L93.8273 109.576L99.5336 107.722L91.1373 81.8803L85.4309 83.7344ZM115.645 82.6666L88.5977 79.8238L87.9705 85.7909L115.018 88.6337L115.645 82.6666ZM89.3429 66.2865L113.324 87.8796L117.339 83.4207L93.3577 61.8277L89.3429 66.2865ZM115.53 42.7812L89.587 61.6301L93.1137 66.4842L119.057 47.6353L115.53 42.7812ZM90.4221 48.2083H117.293V42.2083H90.4221V48.2083ZM98.7235 19.1874L87.6815 43.9881L93.1628 46.4285L104.205 21.6278L98.7235 19.1874ZM74.7937 39.2698L102.964 23.0057L99.9641 17.8095L71.7937 34.0737L74.7937 39.2698Z" fill="#3E3A39" mask="url(#path-6-inside-2_140_48)"/>
<circle cx="60.6395" cy="62.4676" r="29.075" fill="#C08020" stroke="#3E3A39" stroke-width="3"/>
<path d="M51.5 60C51.5 62.0268 51.0861 63.7875 50.4868 64.986C49.8427 66.2743 49.2303 66.5 49 66.5C48.7697 66.5 48.1573 66.2743 47.5132 64.986C46.9139 63.7875 46.5 62.0268 46.5 60C46.5 57.9732 46.9139 56.2125 47.5132 55.014C48.1573 53.7257 48.7697 53.5 49 53.5C49.2303 53.5 49.8427 53.7257 50.4868 55.014C51.0861 56.2125 51.5 57.9732 51.5 60Z" fill="#3E3A39" stroke="#3E3A39" stroke-width="3"/>
<path d="M75.5 60C75.5 62.0268 75.0861 63.7875 74.4868 64.986C73.8427 66.2743 73.2303 66.5 73 66.5C72.7697 66.5 72.1573 66.2743 71.5132 64.986C70.9139 63.7875 70.5 62.0268 70.5 60C70.5 57.9732 70.9139 56.2125 71.5132 55.014C72.1573 53.7257 72.7697 53.5 73 53.5C73.2303 53.5 73.8427 53.7257 74.4868 55.014C75.0861 56.2125 75.5 57.9732 75.5 60Z" fill="#3E3A39" stroke="#3E3A39" stroke-width="3"/>
</svg>
